<svg width="32" height="32" viewBox="0 0 32 32" fill="none" xmlns="http://www.w3.org/2000/svg">
<path d="M9.02012 11.5782C8.69095 11.5782 8.41178 11.5857 8.13262 11.5782C7.78428 11.5657 7.63928 11.4257 7.63262 11.0782C7.62595 10.0488 7.62595 9.01966 7.63262 7.99079C7.63262 7.63663 7.78345 7.4908 8.12678 7.49496C8.68678 7.50163 9.25762 7.4558 9.80428 7.54829C10.9285 7.73829 11.6526 8.65911 11.6593 9.79326C11.6593 10.1024 11.6593 10.4116 11.6593 10.7516H14.2093C14.6709 10.7516 14.8851 10.8874 14.8759 11.1749C14.8668 11.4624 14.6635 11.5832 14.191 11.5832H11.7876C12.0935 11.9724 12.4068 12.3174 12.6585 12.7024C13.0328 13.2714 13.2313 13.938 13.2293 14.619C13.2348 16.5523 13.2379 18.4859 13.2385 20.4198C13.2385 21.3831 13.2385 22.3456 13.2385 23.3364C13.2643 23.3364 13.3551 23.3481 13.4468 23.3481C14.7151 23.3481 15.9834 23.3439 17.2509 23.3531C17.3371 23.359 17.4231 23.3403 17.499 23.2993C17.575 23.2583 17.6378 23.1966 17.6801 23.1214C18.8601 21.3864 18.7718 19.5006 17.4301 17.8307C17.359 17.7555 17.3125 17.6604 17.2968 17.5582C17.2968 16.8732 17.2601 16.1823 17.3318 15.5032C17.4318 14.5565 18.0818 13.9657 19.0335 13.8474C19.0749 13.8379 19.1158 13.8262 19.156 13.8124C18.771 13.2632 18.8426 12.6457 18.8426 12.0357C18.8426 10.1946 18.8426 8.3544 18.8426 6.51497C18.8426 5.36582 19.6643 4.515 20.816 4.515C22.9565 4.50389 25.0979 4.50389 27.2401 4.515C28.3643 4.52083 29.1943 5.33582 29.2043 6.46248C29.2215 8.54078 29.2215 10.6194 29.2043 12.6982C29.1951 13.829 28.3826 14.6199 27.2476 14.6574C26.9976 14.6649 26.7543 14.6574 26.4976 14.6574C26.9143 15.714 26.9543 16.6857 26.056 17.5515C26.1651 17.6182 26.266 17.679 26.366 17.7423C28.0176 18.7765 28.8976 20.3106 29.186 22.1964C29.341 23.2039 28.541 24.1072 27.5143 24.1556C27.0685 24.1764 26.6201 24.1739 26.1735 24.1631C25.9518 24.1572 25.8585 24.2047 25.8135 24.4564C25.5218 26.0897 24.026 27.2955 22.3443 27.2822C20.6626 27.2689 19.2068 26.0714 18.9093 24.4489C18.8793 24.2822 18.8601 24.1622 18.6368 24.1622C15.8507 24.1706 13.0648 24.1736 10.2793 24.1714C10.2509 24.1764 10.223 24.1839 10.196 24.1939C10.1029 24.8254 9.85998 25.4254 9.48762 25.9439C9.03613 26.5596 8.4037 27.019 7.67856 27.2581C6.95341 27.4971 6.17174 27.5038 5.44262 27.2772C4.70751 27.0567 4.06166 26.6079 3.59857 25.9959C3.13548 25.3839 2.87918 24.6404 2.86678 23.8731C2.85178 23.0564 2.83345 22.2281 2.94428 21.4223C3.25012 19.1998 5.17512 17.3865 7.40178 17.1557C7.64595 17.1307 7.75012 17.039 7.80595 16.7965C8.17762 15.1707 8.56678 13.5465 8.94928 11.9257C8.97262 11.8257 8.99095 11.7249 9.02012 11.5782ZM19.6868 8.61328C19.676 8.63495 19.651 8.66161 19.651 8.68828C19.651 10.0808 19.6326 11.4732 19.656 12.8649C19.6643 13.3741 20.1168 13.789 20.6185 13.7932C22.821 13.8115 25.0235 13.8257 27.226 13.8199C27.9634 13.8199 28.386 13.3482 28.3885 12.6074C28.3885 11.433 28.3885 10.2588 28.3885 9.08494V8.61328H19.6868ZM18.5035 23.3381H24.2026C25.2735 23.3381 26.3443 23.3439 27.4143 23.3381C28.0143 23.3331 28.4734 22.8189 28.3743 22.2473C28.1418 20.914 27.6043 19.7273 26.5359 18.844C25.9643 18.3715 25.3501 17.934 24.5718 17.9273C22.6384 17.9082 20.7051 17.9207 18.7718 17.9215C18.688 17.9264 18.6046 17.9355 18.5218 17.949C19.5401 19.744 19.5835 21.5181 18.506 23.3381H18.5035ZM10.1901 23.3381C10.8443 23.3381 11.4876 23.3448 12.131 23.3289C12.179 23.3171 12.2233 23.2932 12.2596 23.2595C12.2959 23.2258 12.323 23.1835 12.3385 23.1364C12.3768 22.6931 12.441 22.2414 12.396 21.8031C12.2151 20.0581 10.9568 18.5481 9.27678 18.099C7.45262 17.6107 5.89428 18.099 4.65262 19.529C4.22534 20.0249 3.93063 20.6209 3.79595 21.2614C5.10178 19.9848 6.64678 19.8665 7.79595 20.3106C9.16678 20.8406 9.93178 21.8673 10.1926 23.3381H10.1901ZM28.3918 7.76662C28.3918 7.33413 28.3918 6.93997 28.3918 6.54581C28.3876 5.77915 27.9476 5.32749 27.1793 5.31249C26.7218 5.30332 26.2626 5.31249 25.8068 5.31249C24.1751 5.31249 22.5435 5.31249 20.9118 5.31249C20.2618 5.31249 19.7868 5.60332 19.7035 6.16581C19.626 6.68747 19.6868 7.22913 19.6868 7.76746L28.3918 7.76662ZM8.55845 17.124C10.1976 17.3348 11.4485 18.0998 12.3751 19.4106C12.401 19.3681 12.4185 19.3523 12.4185 19.3365C12.4185 17.7157 12.451 16.094 12.4035 14.4749C12.3643 13.1332 11.1768 11.8507 9.85762 11.6366L8.55845 17.124ZM18.1418 17.0715C18.1684 17.083 18.1964 17.0911 18.2251 17.0957C20.4885 17.0957 22.7518 17.1007 25.0151 17.089C25.5226 17.089 25.9385 16.6082 25.9585 16.0698C25.9885 15.249 25.6784 14.7415 25.096 14.6607C25.065 14.6572 25.0338 14.6558 25.0026 14.6565C23.051 14.6565 21.0993 14.6465 19.1476 14.6515C18.9001 14.6448 18.6593 14.7327 18.4743 14.8973C18.2893 15.0618 18.174 15.2907 18.1518 15.5374C18.1068 16.0407 18.1376 16.549 18.1376 17.0715H18.1418ZM9.37012 23.7606C9.45345 22.4323 8.29345 20.8673 6.45345 20.8923C4.90178 20.914 3.65928 22.2106 3.67345 23.8089C3.69096 24.5571 4.00211 25.2683 4.53969 25.7889C5.07726 26.3095 5.79809 26.5977 6.54642 26.5913C7.29476 26.5848 8.0105 26.2842 8.53901 25.7544C9.06752 25.2246 9.36636 24.5081 9.37095 23.7597L9.37012 23.7606ZM25.0001 24.1706H19.726C19.656 25.2939 20.981 26.4739 22.3243 26.5039C23.6676 26.5339 25.0276 25.3539 25.0001 24.1706ZM10.8218 10.7499C11.0718 8.77078 10.2543 8.09412 8.48845 8.32745V10.7499H10.8218Z" fill="white"/>
<path d="M23.0919 21.0333C22.791 21.0333 22.4902 21.0333 22.1893 21.0333C21.9451 21.0333 21.7918 20.8991 21.7793 20.6575C21.7724 20.6023 21.7777 20.5464 21.7948 20.4935C21.8118 20.4406 21.8402 20.3921 21.878 20.3513C21.9158 20.3106 21.9621 20.2786 22.0136 20.2577C22.065 20.2367 22.1205 20.2273 22.176 20.23C22.7868 20.2117 23.3994 20.215 24.0094 20.23C24.2594 20.235 24.4261 20.3917 24.4211 20.6466C24.4161 20.9016 24.2544 21.0383 23.9919 21.0391L23.0919 21.0333Z" fill="white"/>
<path d="M4.67436 23.766C4.67267 23.5224 4.71895 23.281 4.81056 23.0554C4.90217 22.8297 5.03732 22.6244 5.2083 22.451C5.37928 22.2776 5.58273 22.1396 5.80704 22.0448C6.03134 21.9501 6.27212 21.9005 6.51561 21.8988C6.7591 21.8971 7.00055 21.9433 7.22615 22.035C7.45176 22.1266 7.65711 22.2617 7.83049 22.4327C8.00386 22.6037 8.14186 22.8072 8.23661 23.0315C8.33136 23.2558 8.381 23.4966 8.38269 23.7401C8.38439 23.9836 8.33811 24.2251 8.2465 24.4507C8.15488 24.6763 8.01973 24.8817 7.84876 25.0551C7.67778 25.2285 7.47433 25.3665 7.25002 25.4612C7.02571 25.556 6.78494 25.6056 6.54145 25.6073C6.29795 25.609 6.05651 25.5627 5.8309 25.4711C5.6053 25.3795 5.39994 25.2443 5.22657 25.0733C5.05319 24.9024 4.91519 24.6989 4.82044 24.4746C4.7257 24.2502 4.67606 24.0095 4.67436 23.766ZM7.56103 23.766C7.56447 23.6283 7.54037 23.4913 7.49015 23.363C7.43993 23.2348 7.3646 23.1178 7.26858 23.0191C7.17256 22.9203 7.05778 22.8418 6.93098 22.788C6.80419 22.7342 6.66792 22.7063 6.53019 22.7059C6.25753 22.706 5.99569 22.8126 5.80048 23.003C5.60528 23.1934 5.49215 23.4525 5.48519 23.7251C5.47966 23.8632 5.50173 24.0009 5.5501 24.1303C5.59847 24.2597 5.67217 24.3782 5.76689 24.4787C5.8616 24.5793 5.97543 24.6599 6.10171 24.7159C6.22798 24.7719 6.36416 24.8022 6.50227 24.8049C6.64039 24.8076 6.77765 24.7827 6.90603 24.7317C7.03441 24.6807 7.15132 24.6046 7.24992 24.5079C7.34852 24.4111 7.42682 24.2957 7.48024 24.1683C7.53366 24.0409 7.56113 23.9041 7.56103 23.766Z" fill="white"/>
</svg>
