<svg width="98" height="48" viewBox="0 0 98 48" fill="none" xmlns="http://www.w3.org/2000/svg">
<path d="M96.7331 18.7055C96.3744 20.1434 95.9903 21.4956 95.5777 22.7716C94.6295 25.8518 93.3302 28.8126 91.7052 31.5958C89.9259 34.5597 87.735 37.256 85.1981 39.6043C79.3661 45.1951 72.0507 47.9905 63.2518 47.9905C55.8084 47.9365 51.2312 47.9048 47.0635 47.8952C46.2314 47.8945 45.4132 47.6822 44.6857 47.2782C43.9582 46.8743 43.3454 46.292 42.9049 45.5861C42.4643 44.8802 42.2105 44.0739 42.1673 43.2429C42.124 42.412 42.2928 41.5837 42.6577 40.8359L49.606 26.6155H61.3917L55.2338 39.2488H63.7819C68.5093 38.7536 73.0177 36.3042 77.3071 31.9005C77.8594 31.3355 78.4054 30.7388 78.9513 30.1071C80.1904 28.6917 81.3255 27.1885 82.3477 25.6093C84.5506 22.1664 85.651 18.9382 85.6489 15.9249C85.6489 13.686 84.9939 12.1317 83.684 11.262C82.626 10.5764 81.004 10.2336 78.818 10.2336C78.1832 10.2336 53.5674 10.5129 53.5674 10.5129L52.0438 0.00634766L82.17 0.171407L83.6015 0.190451C88.3628 0.190451 91.1275 1.62518 93.1875 3.25989C95.3333 4.96442 96.9077 7.80849 97.1711 12.173C97.2821 14.3601 97.1351 16.5527 96.7331 18.7055Z" fill="#EC2734"/>
<path d="M32.4781 0.0158719C22.4794 0.0158719 22.0605 6.99907 22.6858 10.4208C22.6858 10.4748 22.6858 10.5224 22.7112 10.5732L24.5014 20.8258L26.7709 33.8082C26.9581 34.8857 26.7237 35.9939 26.1162 36.9032C25.5088 37.8126 24.5749 38.4535 23.5079 38.6933C23.2047 38.7612 22.8949 38.7953 22.5842 38.7949H4.60245C3.71874 38.7949 2.85372 39.0493 2.11073 39.5278C1.36774 40.0062 0.778198 40.6884 0.412526 41.4929C0.093865 42.194 -0.0437911 42.9638 0.0121687 43.7319C0.0681284 44.4999 0.315914 45.2417 0.732828 45.8892C1.14974 46.5366 1.72246 47.0692 2.39851 47.4379C3.07457 47.8067 3.83235 48 4.60245 48H29.4087C32.5702 48 34.9868 47.2816 36.6585 45.8447C37.9631 44.7211 39.7533 42.4706 40.0105 38.7282C40.2676 34.9858 37.0013 28.4788 34.4556 15.5979C34.3342 14.981 34.3509 14.3449 34.5047 13.7352C34.6584 13.1255 34.9452 12.5575 35.3446 12.0719C35.744 11.5863 36.246 11.1952 36.8146 10.9268C37.3831 10.6583 38.0041 10.5191 38.6329 10.5192H57.0812C57.5383 10.5192 57.9922 10.5192 58.4429 10.4748C65.1087 10.0114 64.6866 0 57.9922 0L32.4781 0.0158719Z" fill="#FF7E00"/>
<path d="M65.5564 26.6441L64.4804 28.7486C64.4383 28.8281 64.422 28.9186 64.4335 29.0078C64.4451 29.0969 64.484 29.1803 64.5449 29.2465C64.6058 29.3126 64.6857 29.3582 64.7737 29.3771C64.8616 29.3959 64.9532 29.387 65.0358 29.3517L79.6879 23.2287C79.7584 23.1997 79.8201 23.1527 79.8668 23.0924C79.9135 23.0321 79.9435 22.9606 79.9538 22.885C79.964 22.8094 79.9543 22.7325 79.9254 22.6619C79.8966 22.5913 79.8497 22.5295 79.7894 22.4827L71.6445 16.0518C71.594 16.0118 71.5353 15.9833 71.4725 15.9686C71.4098 15.9538 71.3446 15.9531 71.2815 15.9664C71.2185 15.9797 71.1591 16.0068 71.1077 16.0457C71.0564 16.0846 71.0142 16.1344 70.9842 16.1915L69.3972 19.2355H45.3622L41.5215 26.6441H65.5564Z" fill="#FF7E00"/>
</svg>
